<svg width="180" height="180" viewBox="0 0 180 180" fill="none" xmlns="http://www.w3.org/2000/svg">
<path fill-rule="evenodd" clip-rule="evenodd" d="M-7.62939e-06 0H180V180H-7.62939e-06V0ZM91.0502 39.1897C92.2322 38.6514 93.6249 38.9124 94.5318 39.8421C95.4388 40.7719 95.6651 42.1706 95.0976 43.3389L57.086 121.596C57.7092 120.892 58.3415 120.177 58.9824 119.454C73.0319 103.589 91.2359 83.2474 107.83 65.3693C124.344 47.5759 139.474 31.9907 147.281 25.8277C148.277 25.0412 149.206 24.3654 150.043 23.8429C150.823 23.3556 151.744 22.8592 152.68 22.6338C153.156 22.5192 153.87 22.4156 154.666 22.6036C155.571 22.8173 156.403 23.3718 156.934 24.2481C157.405 25.0235 157.496 25.8141 157.5 26.3499C157.504 26.9068 157.413 27.4412 157.302 27.9055C156.883 29.651 155.734 32.0745 154.056 35.0739C152.326 38.166 149.871 42.149 146.62 47.1149C133.673 66.8911 127.701 77.4593 125.449 82.9572C125.133 83.7287 124.906 84.3637 124.747 84.8812L124.823 84.8645L124.824 84.8645C125.322 84.756 125.968 84.6154 126.581 84.5357C127.202 84.4549 128.209 84.3706 129.228 84.6861C130.49 85.077 131.589 86.0323 132.025 87.5272C132.378 88.7364 132.198 89.9828 131.933 91.013C131.65 92.1135 131.155 93.392 130.467 94.8689C129.086 97.8301 126.746 101.968 123.127 107.726C108.213 131.458 86.6694 142.479 68.9854 147.558C60.1446 150.098 52.2334 151.164 46.5243 151.597C43.6672 151.813 41.3545 151.871 39.7438 151.875C38.9382 151.877 38.3076 151.865 37.8716 151.852C37.6535 151.845 37.4841 151.839 37.3657 151.834L37.2266 151.827L37.1864 151.825L37.1737 151.824C37.1729 151.824 37.1713 151.824 37.1861 151.54C37.1849 151.54 37.1836 151.54 37.1824 151.54L37.166 151.824C35.9934 151.756 34.9615 151.027 34.5055 149.945C34.3812 149.65 34.3057 149.342 34.2772 149.033C27.5728 132.778 24.6037 110.081 34.5215 85.4906C37.18 78.8991 42.1772 72.7453 47.9359 67.2877C53.7225 61.8035 60.4523 56.86 66.8078 52.7209C73.172 48.576 79.2192 45.2004 83.6724 42.8615C85.9011 41.6911 87.7355 40.7777 89.0172 40.1549C89.6582 39.8435 90.1612 39.6045 90.5066 39.4423L90.9039 39.257L91.0094 39.2084L91.0502 39.1897ZM91.0502 39.1897C91.051 39.1893 91.0502 39.1897 92.3268 41.9931L91.0502 39.1897ZM45.4775 145.496C45.6684 145.483 45.8622 145.468 46.0588 145.454C51.4464 145.045 58.9306 144.036 67.2847 141.637C83.9905 136.839 104.034 126.529 117.911 104.448C121.49 98.7532 123.667 94.8738 124.883 92.2657C125.097 91.8059 125.276 91.3972 125.425 91.0352C124.987 91.1242 124.493 91.2136 124.004 91.2646C123.327 91.3351 122.302 91.3782 121.268 91.0112C120.043 90.5768 119.022 89.6403 118.548 88.2483C118.144 87.0597 118.229 85.8006 118.446 84.6853C118.673 83.5201 119.113 82.1725 119.748 80.6218C122.256 74.4986 128.555 63.4621 141.466 43.7405C144.252 39.4848 146.403 36.0249 147.989 33.2795C140.007 40.3222 126.882 53.8979 112.345 69.5603C95.7993 87.3869 77.6317 107.687 63.5945 123.538C56.9118 131.084 51.1678 137.619 46.9839 142.395L45.4775 145.496ZM41.804 138.958L85.5875 48.8176C81.3643 51.0632 75.8917 54.1569 70.1699 57.8833C64.0003 61.9014 57.599 66.6176 52.1737 71.7593C46.7204 76.9274 42.4249 82.3653 40.235 87.7949C31.788 108.738 33.4021 128.121 38.4825 142.756C39.4032 141.702 40.4926 140.456 41.7327 139.04C41.7564 139.012 41.7802 138.985 41.804 138.958Z" fill="#499A18"/>
</svg>
