<svg width="120" height="120" viewBox="0 0 120 120" fill="none" xmlns="http://www.w3.org/2000/svg">
<rect width="120" height="120" fill="#EDF2EC"/>
<path fill-rule="evenodd" clip-rule="evenodd" d="M97.7471 31.4099C99.9144 28.0994 101.551 25.444 102.704 23.3826C103.823 21.383 104.589 19.7673 104.868 18.6037C104.942 18.2941 105.003 17.9379 105 17.5666C104.998 17.2094 104.937 16.6823 104.623 16.1654C104.269 15.5812 103.714 15.2115 103.111 15.0691C102.58 14.9437 102.104 15.0128 101.787 15.0892C101.163 15.2394 100.549 15.5704 100.029 15.8953C99.4709 16.2436 98.8513 16.6941 98.1872 17.2184C92.9829 21.3271 82.8964 31.7173 71.8865 43.5795C60.8241 55.4983 48.6881 69.0593 39.3218 79.6358C38.8945 80.1183 38.4729 80.5946 38.0575 81.0643L63.3986 28.8926C63.7769 28.1137 63.626 27.1813 63.0214 26.5614C62.4168 25.9416 61.4883 25.7676 60.7003 26.1265L60.6731 26.1389L60.6028 26.1713L60.3379 26.2949C60.1076 26.403 59.7723 26.5623 59.345 26.7699C58.4905 27.1851 57.2676 27.794 55.7818 28.5744C52.8129 30.1336 48.7815 32.384 44.5387 35.1473C40.3017 37.9067 35.8152 41.2024 31.9574 44.8584C28.1183 48.4968 24.7868 52.5994 23.0145 56.9937C16.4026 73.3871 18.382 88.5188 22.8517 99.3553C22.8706 99.5614 22.9209 99.7664 23.0038 99.9631C23.3079 100.685 23.9958 101.171 24.7775 101.216L24.7884 101.027C24.7893 101.027 24.7901 101.027 24.7909 101.027C24.781 101.216 24.7821 101.216 24.7826 101.216L24.7911 101.217L24.8179 101.218L24.9106 101.222C24.9896 101.226 25.1025 101.23 25.2479 101.235C25.5386 101.243 25.959 101.251 26.496 101.25C27.5698 101.248 29.1116 101.209 31.0163 101.064C34.8224 100.776 40.0966 100.065 45.9905 98.3722C57.7798 94.986 72.1422 87.6386 82.085 71.8174C84.4976 67.9784 86.0577 65.22 86.978 63.2459C87.4371 62.2613 87.767 61.409 87.9555 60.6753C88.132 59.9885 88.2524 59.1576 88.0171 58.3515C87.7262 57.3549 86.9935 56.718 86.1519 56.4574C85.4726 56.2471 84.8016 56.3033 84.3876 56.3571C83.979 56.4103 83.5483 56.504 83.2158 56.5763L83.1647 56.5874C83.2708 56.2425 83.4221 55.8191 83.6328 55.3048C85.1343 51.6395 89.1158 44.5941 97.7471 31.4099ZM27.8695 92.6387C27.8536 92.6569 27.8378 92.675 27.822 92.693C26.9952 93.637 26.269 94.4677 25.6551 95.1704C22.2682 85.4138 21.1922 72.4922 26.8235 58.53C28.2834 54.9102 31.1471 51.2849 34.7826 47.8395C38.3995 44.4118 42.667 41.2676 46.7801 38.5889C50.5946 36.1046 54.243 34.0421 57.0585 32.545L27.8695 92.6387ZM30.3185 96.9973C30.4458 96.9884 30.575 96.979 30.706 96.969C34.2978 96.6969 39.2872 96.0243 44.8566 94.4246C55.9938 91.2258 69.3564 84.3527 78.6076 69.632C80.9935 65.8354 82.445 63.2492 83.2556 61.5104C83.3985 61.2039 83.5178 60.9315 83.6168 60.6901C83.325 60.7495 82.9954 60.809 82.6694 60.843C82.2183 60.8901 81.5347 60.9188 80.8452 60.6741C80.029 60.3845 79.3483 59.7602 79.0325 58.8322C78.7628 58.0398 78.8197 57.2004 78.9643 56.4569C79.1154 55.6801 79.4087 54.7817 79.8322 53.7479C81.5045 49.6657 85.7034 42.308 94.3108 29.1603C96.1682 26.3232 97.6021 24.0166 98.6594 22.1863C93.3381 26.8815 84.5883 35.9319 74.8968 46.3736C63.8664 58.2579 51.7547 71.7915 42.3965 82.3588C37.9414 87.3895 34.112 91.7461 31.3227 94.9297L30.3185 96.9973ZM60.7003 26.1265C60.7009 26.1262 60.7003 26.1265 61.5514 27.9954L60.7003 26.1265Z" fill="#499A18"/>
</svg>
