<svg width="16" height="17" viewBox="0 0 16 17" fill="none" xmlns="http://www.w3.org/2000/svg">
<circle cx="8" cy="8.00635" r="8" fill="#D9D9D9"/>
<path fill-rule="evenodd" clip-rule="evenodd" d="M5.82325 6.8299C5.92088 6.73226 6.07917 6.73226 6.1768 6.82989L8.1768 8.82977C8.27444 8.9274 8.27444 9.08569 8.17681 9.18332C8.07918 9.28096 7.92089 9.28096 7.82326 9.18334L5.82326 7.18345C5.72562 7.08582 5.72562 6.92753 5.82325 6.8299Z" fill="#717171"/>
<path fill-rule="evenodd" clip-rule="evenodd" d="M10.1768 6.82957C10.2744 6.9272 10.2744 7.08549 10.1768 7.18312L8.17678 9.18312C8.07915 9.28076 7.92085 9.28076 7.82322 9.18312C7.72559 9.08549 7.72559 8.9272 7.82322 8.82957L9.82322 6.82957C9.92085 6.73194 10.0791 6.73194 10.1768 6.82957Z" fill="#717171"/>
</svg>
