<svg width="40" height="40" viewBox="0 0 40 40" fill="none" xmlns="http://www.w3.org/2000/svg">
<circle cx="20" cy="20" r="20" fill="white"/>
<path d="M13.7313 38.9878C14.3496 38.7217 14.7826 38.107 14.7826 37.3913V32.6956C14.7826 32.5243 14.7965 32.3461 14.8183 32.1652C14.8061 32.1687 14.7948 32.1713 14.7826 32.1739C14.7826 32.1739 12.1739 32.1739 11.6522 32.1739C10.3478 32.1739 9.21739 31.6522 8.69565 30.6087C8.08696 29.4783 7.82609 27.5652 6.26087 26.5217C6 26.3478 6.17391 26.087 6.69565 26.087C7.21739 26.1739 8.34783 26.8696 9.04348 27.8261C9.82609 28.7826 10.6087 29.5652 12 29.5652C14.1626 29.5652 15.3217 29.4565 16.0191 29.0826C16.8313 27.8748 17.9557 26.9565 19.1304 26.9565V26.9348C14.2017 26.7765 11.053 25.1383 9.58696 22.6087C6.4 22.6452 3.62522 22.9609 2.04174 23.2235C1.9913 22.9391 1.94783 22.653 1.91043 22.3652C3.47304 22.1078 6.12174 21.8026 9.16696 21.7443C9.06956 21.5043 8.98522 21.2583 8.91391 21.0061C5.86087 20.8513 3.22609 20.9722 1.79478 21.0904C1.77739 20.8017 1.75391 20.5139 1.75043 20.2217C3.18435 20.1043 5.74783 19.987 8.72261 20.1252C8.65391 19.6904 8.60956 19.2461 8.60956 18.7835C8.60956 17.3052 9.1313 15.74 10.0878 14.4357C9.65304 12.9574 9.04435 9.82696 10.2617 8.69652C12.6096 8.69652 14.2617 9.82696 15.0443 10.5226C16.5217 9.91304 18.1739 9.56522 20 9.56522C21.8261 9.56522 23.4783 9.91304 24.8696 10.5217C25.6522 9.82609 27.3043 8.69565 29.6522 8.69565C30.9565 9.91304 30.2609 13.0435 29.8261 14.4348C30.7826 15.7391 31.3043 17.2174 31.2174 18.7826C31.2174 19.2035 31.1783 19.6096 31.1217 20.0078C34.1643 19.8583 36.7974 19.9783 38.2557 20.0965C38.2539 20.3896 38.227 20.6757 38.2113 20.9652C36.7583 20.8452 34.0591 20.7217 30.9426 20.8878C30.8652 21.18 30.7713 21.4643 30.66 21.74C33.7435 21.78 36.4557 22.0783 38.093 22.3391C38.0557 22.6278 38.0122 22.9139 37.9617 23.1974C36.2991 22.9313 33.4652 22.62 30.2409 22.6043C28.793 25.107 25.7017 26.7391 20.8696 26.9296V26.9565C23.1304 26.9565 25.2174 30.3478 25.2174 32.6956V37.3913C25.2174 38.107 25.6504 38.7217 26.2687 38.9878C34.2348 36.3513 40 28.8383 40 20C40 8.97217 31.0287 0 20 0C8.9713 0 0 8.97217 0 20C0 28.8383 5.76522 36.3513 13.7313 38.9878Z" fill="black"/>
</svg>
