<svg width="101" height="41" viewBox="0 0 101 41" fill="none" xmlns="http://www.w3.org/2000/svg">
<path d="M51.9824 15.1794L56.7727 14.8698C56.882 15.653 57.0823 16.2358 57.4102 16.6547C57.9384 17.3104 58.6669 17.6383 59.6323 17.6383C60.3426 17.6383 60.9072 17.4744 61.2897 17.1283C61.654 16.8551 61.8726 16.418 61.8726 15.9626C61.8726 15.5255 61.6722 15.1066 61.3262 14.8334C60.9619 14.5055 60.1058 14.1777 58.758 13.8862C56.5541 13.3945 54.9695 12.7388 54.0406 11.9009C53.1117 11.1177 52.5835 9.97025 52.6199 8.74992C52.6199 7.91208 52.8749 7.07424 53.3485 6.38211C53.8949 5.59892 54.6417 4.97964 55.5342 4.63358C56.4995 4.21466 57.8473 3.99609 59.5412 3.99609C61.6176 3.99609 63.2022 4.37859 64.295 5.16178C65.3879 5.92677 66.0436 7.16531 66.2439 8.8592L61.5083 9.13241C61.3808 8.40386 61.1258 7.87565 60.7069 7.52959C60.288 7.18352 59.7416 7.0196 59.0312 7.0196C58.4484 7.0196 58.0112 7.1471 57.7198 7.38388C57.4466 7.60244 57.2645 7.93029 57.2827 8.29457C57.2827 8.56778 57.4284 8.82277 57.647 8.9867C57.8837 9.20527 58.4484 9.40562 59.3409 9.58776C61.5447 10.0613 63.1111 10.5349 64.0765 11.0267C65.0418 11.5184 65.7339 12.1195 66.1529 12.8298C66.59 13.5584 66.8086 14.3962 66.7903 15.2523C66.7903 16.2723 66.4989 17.2922 65.9161 18.1483C65.315 19.0408 64.4772 19.7329 63.4936 20.1518C62.4554 20.6072 61.144 20.8439 59.5776 20.8439C56.8091 20.8439 54.8967 20.3157 53.822 19.2411C52.7474 18.1665 52.1099 16.8187 51.9824 15.1794ZM1.14748 20.5707V4.28752H9.54408C11.0923 4.28752 12.2944 4.41501 13.114 4.68822C13.9154 4.94322 14.6258 5.47142 15.0993 6.18176C15.6275 6.96496 15.8825 7.87565 15.8643 8.82277C15.9189 10.4256 15.0993 11.9556 13.6968 12.757C13.1504 13.0666 12.5494 13.2852 11.9301 13.3945C12.3854 13.522 12.8408 13.7405 13.2415 13.9955C13.5511 14.2505 13.8061 14.5419 14.0429 14.8516C14.3161 15.1612 14.5529 15.5073 14.7533 15.8716L17.1939 20.5889H11.4748L8.7791 15.5801C8.43303 14.9426 8.14161 14.5237 7.8684 14.3234C7.50412 14.0684 7.06699 13.9409 6.62986 13.9409H6.19272V20.5525H1.14748V20.5707ZM6.19272 10.8809H8.32375C8.7791 10.8445 9.21623 10.7717 9.65336 10.6624C9.98121 10.6077 10.2726 10.4256 10.473 10.1524C10.9648 9.49669 10.8919 8.56778 10.2908 8.00315C9.963 7.72994 9.32551 7.58423 8.41482 7.58423H6.19272V10.8809ZM0 34.5226L4.79025 34.2129C4.89954 34.9961 5.09989 35.579 5.42774 35.9979C5.93773 36.6536 6.6845 36.9997 7.64983 36.9997C8.36018 36.9997 8.92481 36.8357 9.3073 36.4897C9.67158 36.1983 9.89014 35.7793 9.89014 35.324C9.89014 34.8869 9.68979 34.4679 9.34373 34.1947C8.97945 33.8669 8.12339 33.539 6.75735 33.2476C4.55347 32.7558 2.96886 32.1001 2.03996 31.2623C1.11105 30.4791 0.582845 29.3316 0.619272 28.1113C0.619272 27.2734 0.874267 26.4356 1.34783 25.7435C1.89424 24.9603 2.64101 24.341 3.53349 23.9949C4.49883 23.576 5.84666 23.3575 7.54055 23.3575C9.61693 23.3575 11.2015 23.74 12.2944 24.5231C13.3872 25.3063 14.0247 26.5267 14.225 28.2206L9.48944 28.4938C9.36194 27.7652 9.10695 27.237 8.68803 26.891C8.28732 26.5449 7.72269 26.381 7.01235 26.3992C6.4295 26.3992 5.99237 26.5267 5.70095 26.7817C5.40953 27.0002 5.2456 27.3281 5.26381 27.6924C5.26381 27.9656 5.40953 28.2206 5.62809 28.3845C5.86487 28.6031 6.4295 28.8034 7.32198 28.9856C9.52586 29.4591 11.0923 29.9327 12.0576 30.4244C13.0229 30.9162 13.7151 31.5173 14.134 32.2276C14.5711 32.9562 14.7897 33.794 14.7897 34.6319C14.7897 35.6518 14.48 36.6536 13.9154 37.5097C13.3144 38.4021 12.4765 39.0943 11.493 39.5132C10.4548 39.9685 9.14337 40.2053 7.57698 40.2053C4.80847 40.2053 2.89601 39.6771 1.82139 38.6025C0.746769 37.5097 0.145711 36.1618 0 34.5226H0Z" fill="black"/>
<path d="M24.2245 33.2456L28.6322 34.5752C28.3954 35.6863 27.9037 36.7427 27.2297 37.6716C26.6105 38.4912 25.7909 39.1287 24.8619 39.5476C23.9148 39.9665 22.7127 40.1851 21.2556 40.1851C19.4888 40.1851 18.0317 39.9301 16.9207 39.4201C15.7914 38.9101 14.8261 37.9994 14.0065 36.7062C13.1868 35.4131 12.7861 33.7556 12.7861 31.7339C12.7861 29.0382 13.4965 26.9618 14.9354 25.5229C16.3743 24.084 18.396 23.3555 21.0188 23.3555C23.077 23.3555 24.6798 23.7744 25.8637 24.594C27.0294 25.4319 27.9037 26.7068 28.4865 28.4189L24.0423 29.4025C23.933 29.02 23.7691 28.6375 23.5505 28.3096C23.2773 27.9272 22.9313 27.6357 22.5124 27.4172C22.0934 27.1986 21.6199 27.1075 21.1463 27.1075C19.9988 27.1075 19.1246 27.5629 18.5235 28.4918C18.0682 29.1657 17.8314 30.2403 17.8314 31.6974C17.8314 33.5006 18.1046 34.7392 18.651 35.4131C19.1974 36.087 19.9624 36.4148 20.9642 36.4148C21.9295 36.4148 22.6581 36.1416 23.1498 35.6134C23.6416 35.0488 24.0059 34.2656 24.2245 33.2456ZM34.5153 23.6287H39.5423V29.3296H45.0429V23.6287H50.1064V39.9119H45.0429V33.3185H39.5423V39.9119H34.5153V23.6287V23.6287Z" fill="black"/>
<path d="M49.4143 31.7729C49.4143 29.1136 50.1611 27.0373 51.6364 25.5619C53.1117 24.0866 55.1881 23.3398 57.8291 23.3398C60.543 23.3398 62.6194 24.0684 64.0947 25.5255C65.57 26.9826 66.2986 29.0226 66.2986 31.6454C66.2986 33.5578 65.9707 35.106 65.3333 36.3263C64.714 37.5285 63.7486 38.512 62.5647 39.1677C61.3444 39.8416 59.8327 40.1877 58.0295 40.1877C56.1899 40.1877 54.6781 39.8963 53.476 39.3134C52.2375 38.6942 51.2175 37.7288 50.5436 36.5449C49.7968 35.2699 49.4143 33.6853 49.4143 31.7729ZM54.4413 31.7911C54.4413 33.4303 54.751 34.6142 55.352 35.3428C55.9531 36.0531 56.7909 36.4174 57.8473 36.4174C58.922 36.4174 59.7598 36.0714 60.3609 35.361C60.9619 34.6507 61.2533 33.3939 61.2533 31.5725C61.2533 30.0426 60.9437 28.9133 60.3244 28.2212C59.7052 27.5108 58.8673 27.1648 57.8109 27.1648C56.882 27.1283 55.9895 27.529 55.3703 28.2394C54.751 28.9497 54.4413 30.1336 54.4413 31.7911V31.7911ZM71.4531 31.7729C71.4531 29.1136 72.1999 27.0373 73.6752 25.5619C75.1505 24.0866 77.2269 23.3398 79.8679 23.3398C82.5818 23.3398 84.6764 24.0684 86.1335 25.5255C87.5906 26.9826 88.3374 29.0226 88.3374 31.6454C88.3374 33.5578 88.0095 35.106 87.3721 36.3263C86.7528 37.5285 85.7874 38.512 84.6035 39.1677C83.3832 39.8416 81.8715 40.1877 80.0683 40.1877C78.2287 40.1877 76.7169 39.8963 75.5148 39.3134C74.2763 38.6942 73.2563 37.7288 72.5824 36.5449C71.8356 35.2699 71.4531 33.6853 71.4531 31.7729V31.7729ZM76.4801 31.7911C76.4801 33.4303 76.7898 34.6142 77.3908 35.3428C77.9919 36.0531 78.8297 36.4174 79.8861 36.4174C80.9608 36.4174 81.7986 36.0714 82.3997 35.361C83.0007 34.6507 83.2921 33.3939 83.2921 31.5725C83.2921 30.0426 82.9825 28.9133 82.3632 28.2212C81.744 27.5108 80.9061 27.1648 79.8497 27.1648C78.9208 27.1283 78.0101 27.529 77.4091 28.2394C76.7898 28.9497 76.4801 30.1336 76.4801 31.7911V31.7911Z" fill="black"/>
<path d="M87.8092 23.6289H92.8363V35.9051H100.686V39.9121H87.791V23.6289H87.8092Z" fill="black"/>
<path d="M82.2683 22.6912C87.3295 18.8772 88.8902 12.4119 85.7542 8.25053C82.6183 4.08914 75.9732 3.80752 70.9121 7.62151C65.8509 11.4355 64.2902 17.9008 67.4262 22.0622C70.5621 26.2236 77.2072 26.5052 82.2683 22.6912Z" fill="white"/>
<path d="M82.2683 22.6912C87.3295 18.8772 88.8902 12.4119 85.7542 8.25053C82.6183 4.08914 75.9732 3.80752 70.9121 7.62151C65.8509 11.4355 64.2902 17.9008 67.4262 22.0622C70.5621 26.2236 77.2072 26.5052 82.2683 22.6912Z" fill="white"/>
<path fill-rule="evenodd" clip-rule="evenodd" d="M71.1314 7.9099C66.1751 11.6449 64.7406 17.8904 67.7172 21.8404C70.6939 25.7905 77.0929 26.1328 82.0492 22.3978C87.0056 18.6628 88.4401 12.4173 85.4634 8.46724C82.4868 4.51719 76.0878 4.1749 71.1314 7.9099ZM67.1354 22.2789C63.8402 17.9062 65.527 11.221 70.693 7.32805C75.8589 3.43508 82.7501 3.65603 86.0453 8.02877C89.3405 12.4015 87.6537 19.0867 82.4877 22.9796C77.3217 26.8726 70.4306 26.6516 67.1354 22.2789Z" fill="black"/>
<path d="M71.4712 13.9609L73.2926 12.6859L75.5329 15.8734C75.9154 16.3834 76.2068 16.9298 76.4254 17.5308C76.5529 17.9862 76.5165 18.4779 76.3343 18.9151C76.0975 19.4615 75.715 19.9168 75.205 20.2447C74.604 20.6636 74.094 20.9004 73.6569 20.9733C73.2379 21.0461 72.8008 20.9733 72.4001 20.7911C71.963 20.5725 71.5805 20.2629 71.2891 19.8622L72.8555 18.4051C72.983 18.6054 73.1469 18.7876 73.329 18.9333C73.4565 19.0244 73.6022 19.079 73.7662 19.079C73.8936 19.079 74.0211 19.0244 74.1122 18.9515C74.2944 18.8422 74.4219 18.6237 74.4036 18.4051C74.349 18.0955 74.2215 17.7858 74.0211 17.549L71.4712 13.9609V13.9609ZM76.9354 15.9826L78.5928 14.6712C78.775 14.8898 79.0118 15.0537 79.2667 15.1448C79.631 15.2541 80.0135 15.1812 80.3232 14.9445C80.5417 14.7987 80.7239 14.5984 80.7967 14.3434C80.906 14.0155 80.7239 13.6513 80.396 13.542C80.3414 13.5238 80.2867 13.5056 80.2321 13.5056C80.0135 13.4873 79.631 13.5784 79.0664 13.8152C78.1375 14.1977 77.4089 14.3434 76.8625 14.2888C76.3343 14.2341 75.8425 13.9609 75.5511 13.5056C75.3325 13.1959 75.2233 12.8316 75.205 12.4674C75.205 12.0484 75.3143 11.6295 75.5511 11.2835C75.8972 10.7917 76.3161 10.3728 76.8261 10.0449C77.5911 9.51671 78.265 9.26172 78.8478 9.26172C79.4307 9.26172 79.9771 9.53493 80.4871 10.0996L78.8478 11.3927C78.52 10.9738 77.9007 10.8828 77.4818 11.2106L77.4271 11.2652C77.245 11.3745 77.1175 11.5385 77.0447 11.7388C76.99 11.8845 77.0264 12.0484 77.1175 12.1759C77.1904 12.267 77.2996 12.3399 77.4271 12.3399C77.5729 12.3581 77.8278 12.2852 78.1921 12.1213C79.1028 11.7388 79.795 11.5202 80.2685 11.4474C80.6692 11.3745 81.0881 11.411 81.4706 11.5749C81.8167 11.7206 82.1081 11.9756 82.3085 12.2852C82.5635 12.6495 82.7092 13.0866 82.7274 13.542C82.7456 14.0155 82.6181 14.4709 82.3631 14.8716C82.0353 15.3634 81.6163 15.7823 81.1246 16.1101C80.1228 16.8023 79.3032 17.0937 78.6475 16.9844C77.9371 16.8751 77.3543 16.5108 76.9354 15.9826V15.9826Z" fill="black"/>
</svg>
